<svg width="18" height="19" viewBox="0 0 18 19" fill="none" xmlns="http://www.w3.org/2000/svg">
<path fill-rule="evenodd" clip-rule="evenodd" d="M8.98597 2.90581C8.94029 2.90586 8.86542 2.90795 8.76547 2.91394C8.59107 2.92439 8.39777 2.94375 8.19069 2.97419C7.60958 3.0596 7.0314 3.21469 6.49703 3.45445C5.25609 4.01123 4.43334 4.93249 4.17448 6.3335C4.05033 7.00536 4.00235 7.54372 3.93081 8.78523C3.77098 11.559 3.44845 13.0178 2.28753 14.3736C2.63015 14.4245 3.00703 14.4748 3.41609 14.5228C5.10127 14.7204 6.97922 14.8391 9.00047 14.8391C11.0217 14.8391 12.8997 14.7204 14.5848 14.5228C14.9954 14.4747 15.3735 14.4242 15.7172 14.373C14.6092 13.0577 14.2832 11.5847 14.0878 8.77413C14.0417 8.11108 14.0202 7.83259 13.9842 7.47526C13.9419 7.05608 13.8914 6.68477 13.8265 6.33349C13.5676 4.93249 12.7448 4.01123 11.5039 3.45445C10.9695 3.21469 10.3914 3.0596 9.81025 2.97419C9.60316 2.94375 9.40986 2.92439 9.23546 2.91394C9.13551 2.90795 9.06064 2.90586 9.01496 2.90581C9.01015 2.90594 9.00531 2.90601 9.00047 2.90601C8.99562 2.90601 8.99079 2.90594 8.98597 2.90581ZM9.52547 1.87636C10.2257 1.93292 11.0783 2.11264 11.9337 2.49646C13.4699 3.1857 14.5324 4.37546 14.859 6.14271C14.9296 6.52476 14.9839 6.92389 15.0289 7.36989C15.0664 7.74177 15.0884 8.02727 15.1353 8.70132C15.3501 11.7917 15.7066 13.0303 17.1431 14.3358C17.461 14.6248 17.3162 15.1524 16.8954 15.2387C16.7912 15.26 16.5955 15.2963 16.3144 15.3424C15.8497 15.4186 15.3119 15.4947 14.7071 15.5657C13.8941 15.661 13.0379 15.7383 12.1437 15.7935C11.9922 17.3961 10.6428 18.6502 9.00032 18.6502C7.35832 18.6502 6.0085 17.3959 5.85697 15.7934C4.96281 15.7383 4.10671 15.661 3.29379 15.5657C2.689 15.4947 2.15121 15.4186 1.68653 15.3424C1.40543 15.2963 1.20972 15.26 1.10554 15.2387C0.685139 15.1525 0.540106 14.6257 0.857147 14.3365C2.35627 12.9689 2.70818 11.7509 2.88255 8.72483C2.9566 7.43962 3.00719 6.87203 3.14196 6.14272C3.46849 4.37546 4.53103 3.1857 6.0672 2.49646C6.92266 2.11264 7.77521 1.93292 8.47547 1.87636V0.875006C8.47547 0.585057 8.71052 0.350006 9.00047 0.350006C9.29042 0.350006 9.52547 0.585057 9.52547 0.875006V1.87636ZM6.92262 15.8476C7.09148 16.8423 7.95774 17.6002 9.00032 17.6002C10.0433 17.6002 10.9093 16.8425 11.078 15.8477C10.4041 15.8747 9.71088 15.8891 9.00047 15.8891C8.28995 15.8891 7.59667 15.8747 6.92262 15.8476Z" fill="#786CC2"/>
</svg>
