<svg width="143" height="38" viewBox="0 0 143 38" fill="none" xmlns="http://www.w3.org/2000/svg">
<path d="M4 7.5H21.1153C21.3367 7.5 21.5317 7.64557 21.5947 7.85781L28.1206 29.8578C28.2156 30.1783 27.9755 30.5 27.6412 30.5H4C3.72386 30.5 3.5 30.2761 3.5 30V8C3.5 7.72386 3.72386 7.5 4 7.5Z" stroke="#786CC2" stroke-width="7"/>
<path d="M39.232 5.192L39.792 4.436C40.604 4.828 41.696 5.472 42.242 5.92L41.668 6.774C41.136 6.312 40.072 5.626 39.232 5.192ZM38.518 9L39.05 8.23C39.862 8.566 40.912 9.154 41.458 9.588L40.898 10.456C40.394 10.008 39.344 9.392 38.518 9ZM38.868 16.14C39.512 15.076 40.45 13.256 41.122 11.674L41.836 12.388C41.22 13.844 40.38 15.566 39.68 16.868L38.868 16.14ZM48.262 8.244C48.71 11.632 49.648 14.684 51.58 16.028C51.328 16.224 50.978 16.63 50.81 16.924C48.794 15.314 47.856 12.122 47.38 8.356L48.262 8.244ZM50.67 9.812L51.398 10.568C50.572 11.254 49.634 12.024 48.878 12.528L48.332 11.926C49.046 11.394 50.068 10.484 50.67 9.812ZM49.844 4.282L50.684 5.122C48.78 5.78 45.896 6.27 43.446 6.564C43.418 6.312 43.25 5.92 43.124 5.696C45.504 5.374 48.29 4.856 49.844 4.282ZM43.124 5.696H44.104V9.21C44.104 11.534 43.866 14.908 42.326 17.19C42.158 17.022 41.738 16.77 41.486 16.686C42.984 14.488 43.124 11.408 43.124 9.21V5.696ZM49.592 6.886L50.432 7.712C49.172 8.202 47.338 8.58 45.784 8.818C45.742 8.58 45.588 8.202 45.462 7.964C46.932 7.726 48.64 7.32 49.592 6.886ZM45.364 16.994L45.252 16.07L45.644 15.692L48.5 14.53C48.542 14.81 48.64 15.188 48.71 15.384C45.994 16.56 45.602 16.77 45.364 16.994ZM45.364 16.994C45.308 16.742 45.098 16.322 44.944 16.098C45.168 15.986 45.462 15.762 45.462 15.202V7.978H46.4V16.098C46.4 16.098 45.364 16.63 45.364 16.994ZM54.156 5.822H65.3V6.914H54.156V5.822ZM53.414 15.006H66V16.056H53.414V15.006ZM59.07 6.368H60.246V15.44H59.07V6.368ZM72.832 5.78H80.63V6.69H72.832V5.78ZM72.846 12.15H80.63V13.06H72.846V12.15ZM74.582 7.936H78.782V8.762H74.582V7.936ZM74.064 4.24H75.044V10.036H78.376V4.24H79.37V10.904H74.064V4.24ZM76.248 10.764H77.256V17.12H76.248V10.764ZM68.17 11.982L68.73 11.296C70.158 12.458 71.964 14.124 72.79 15.188L72.146 16C71.334 14.894 69.584 13.172 68.17 11.982ZM68.17 11.982C68.716 10.064 69.346 6.732 69.556 4.296L70.466 4.338C70.214 6.858 69.556 10.232 69.024 12.234L68.17 11.982ZM71.264 6.228H72.16V7.95C72.16 10.638 71.852 14.292 68.52 17.05C68.366 16.868 68.044 16.56 67.82 16.42C71.026 13.844 71.264 10.428 71.264 7.95V6.228ZM67.89 7.39C69.164 7.334 71.026 7.236 72.86 7.138V8.062C71.124 8.188 69.332 8.286 68.002 8.356L67.89 7.39ZM74.862 13.508L75.632 13.788C75.156 14.978 74.246 16.238 73.336 16.896C73.182 16.658 72.86 16.322 72.65 16.14C73.518 15.622 74.414 14.544 74.862 13.508ZM77.886 13.844L78.656 13.522C79.398 14.418 80.322 15.664 80.77 16.42L79.958 16.812C79.524 16.056 78.628 14.782 77.886 13.844ZM85.572 8.818H92.642V9.798H85.572V8.818ZM85.32 15.328H92.824V16.322H85.32V15.328ZM84.844 11.478H93.538V17.05H92.432V12.43H85.894V17.092H84.844V11.478ZM89.324 4.212L90.248 4.674C88.694 7.012 86.118 9.028 83.416 10.218C83.234 9.938 82.94 9.546 82.646 9.294C85.32 8.244 87.896 6.382 89.324 4.212ZM89.534 5.024C91.242 6.914 93.3 8.146 95.652 9.14C95.386 9.378 95.078 9.77 94.924 10.092C92.53 8.944 90.5 7.614 88.638 5.486L89.534 5.024ZM107.37 6.27L108.168 6.494C107.888 7.334 107.566 8.342 107.286 8.972L106.656 8.762C106.908 8.09 107.23 6.998 107.37 6.27ZM104.514 6.466L105.172 6.242C105.508 6.858 105.816 7.698 105.928 8.244L105.242 8.496C105.144 7.936 104.836 7.096 104.514 6.466ZM102.722 4.912H109.288V5.85H103.674V17.148H102.722V4.912ZM108.952 4.912H109.904V15.944C109.904 16.518 109.792 16.784 109.442 16.952C109.092 17.106 108.518 17.134 107.65 17.12C107.622 16.882 107.496 16.448 107.356 16.196C107.958 16.224 108.532 16.21 108.714 16.21C108.896 16.196 108.952 16.14 108.952 15.944V4.912ZM104.024 8.608H108.644V9.434H104.024V8.608ZM104.178 10.918H108.462V11.758H104.178V10.918ZM105.522 9.686L106.264 9.406C106.502 9.812 106.782 10.358 106.894 10.708L106.124 11.03C106.012 10.666 105.76 10.092 105.522 9.686ZM100.832 9.854L101.574 9.602C101.966 10.47 102.358 11.618 102.54 12.276L101.742 12.598C101.602 11.898 101.196 10.736 100.832 9.854ZM99.446 13.354L100.188 13.2C100.37 14.138 100.538 15.356 100.58 16.182L99.782 16.364C99.768 15.552 99.614 14.306 99.446 13.354ZM97.976 13.256L98.788 13.396C98.648 14.614 98.382 15.93 98.102 16.798C97.92 16.7 97.528 16.56 97.318 16.504C97.64 15.65 97.85 14.39 97.976 13.256ZM97.654 9.49C97.612 9.294 97.458 8.832 97.346 8.58C97.57 8.524 97.822 8.23 98.102 7.81C98.396 7.39 99.348 5.78 99.908 4.254L100.79 4.646C100.09 6.2 99.166 7.838 98.256 8.958V8.972C98.256 8.972 97.654 9.28 97.654 9.49ZM97.654 9.49L97.64 8.762L98.102 8.468L100.496 8.258C100.454 8.51 100.426 8.86 100.412 9.056C98.228 9.308 97.864 9.378 97.654 9.49ZM97.738 12.64C97.71 12.444 97.556 11.982 97.444 11.73C97.724 11.674 98.032 11.31 98.452 10.778C98.886 10.26 100.3 8.244 101.182 6.326L102.008 6.816C100.972 8.748 99.642 10.722 98.354 12.122V12.15C98.354 12.15 97.738 12.444 97.738 12.64ZM97.738 12.64L97.71 11.912L98.186 11.59L101.91 11.072C101.882 11.31 101.882 11.66 101.896 11.856C98.452 12.388 98.004 12.5 97.738 12.64ZM100.972 13.074L101.672 12.836C101.994 13.704 102.344 14.824 102.498 15.552L101.756 15.818C101.616 15.062 101.266 13.928 100.972 13.074ZM104.696 11.324H105.564V13.144C105.564 13.494 105.62 13.606 105.9 13.606C106.152 13.606 107.37 13.606 107.622 13.606C107.86 13.606 108.252 13.606 108.476 13.55C108.49 13.788 108.518 14.124 108.546 14.334C108.364 14.39 107.986 14.39 107.65 14.39C107.356 14.39 106.04 14.39 105.83 14.39C104.906 14.39 104.696 14.054 104.696 13.13V11.324Z" fill="#786CC2"/>
<path d="M39 33V25.67H40.83C43.09 25.67 44.29 26.98 44.29 29.31C44.29 31.64 43.09 33 40.88 33H39ZM39.93 32.24H40.76C42.48 32.24 43.34 31.17 43.34 29.31C43.34 27.45 42.48 26.43 40.76 26.43H39.93V32.24ZM46.3048 33V27.57H47.2148V33H46.3048ZM46.7648 26.45C46.4048 26.45 46.1548 26.22 46.1548 25.84C46.1548 25.49 46.4048 25.26 46.7648 25.26C47.1148 25.26 47.3748 25.49 47.3748 25.84C47.3748 26.22 47.1148 26.45 46.7648 26.45ZM50.9787 33.14C50.2087 33.14 49.4587 32.81 48.9487 32.39L49.3987 31.78C49.8687 32.16 50.3487 32.43 50.9987 32.43C51.7187 32.43 52.0787 32.05 52.0787 31.57C52.0787 31.02 51.4287 30.77 50.8287 30.55C50.0787 30.26 49.2487 29.9 49.2487 28.97C49.2487 28.11 49.9387 27.44 51.1187 27.44C51.7887 27.44 52.3887 27.71 52.8087 28.05L52.3687 28.63C51.9987 28.36 51.6087 28.15 51.1287 28.15C50.4387 28.15 50.1287 28.51 50.1287 28.93C50.1287 29.45 50.6787 29.65 51.2987 29.87C52.0887 30.17 52.9487 30.49 52.9487 31.52C52.9487 32.41 52.2587 33.14 50.9787 33.14ZM54.7364 35.29V27.57H55.4764L55.5664 28.2H55.5964C56.0864 27.79 56.6864 27.44 57.3164 27.44C58.7264 27.44 59.4764 28.53 59.4764 30.21C59.4764 32.06 58.3664 33.14 57.1164 33.14C56.6264 33.14 56.1164 32.91 55.6264 32.51L55.6464 33.46V35.29H54.7364ZM56.9764 32.37C57.8664 32.37 58.5364 31.56 58.5364 30.22C58.5364 29.01 58.1264 28.2 57.0964 28.2C56.6364 28.2 56.1764 28.46 55.6464 28.95V31.81C56.1364 32.22 56.6164 32.37 56.9764 32.37ZM62.502 33.14C61.592 33.14 60.912 32.57 60.912 31.59C60.912 30.41 61.932 29.82 64.242 29.56C64.242 28.86 64.022 28.19 63.132 28.19C62.492 28.19 61.922 28.49 61.502 28.78L61.142 28.14C61.642 27.82 62.402 27.44 63.272 27.44C64.602 27.44 65.162 28.32 65.162 29.67V33H64.412L64.332 32.36H64.292C63.782 32.79 63.172 33.14 62.502 33.14ZM62.752 32.4C63.282 32.4 63.722 32.15 64.242 31.68V30.17C62.412 30.38 61.802 30.83 61.802 31.53C61.802 32.15 62.222 32.4 62.752 32.4ZM68.911 33.14C67.751 33.14 67.371 32.41 67.371 31.33V28.31H66.561V27.63L67.411 27.57L67.511 26.04H68.281V27.57H69.751V28.31H68.281V31.35C68.281 32.01 68.491 32.4 69.121 32.4C69.311 32.4 69.561 32.32 69.731 32.25L69.911 32.93C69.611 33.04 69.251 33.14 68.911 33.14ZM73.4348 33.14C71.9948 33.14 70.8948 32.09 70.8948 30.3C70.8948 28.48 72.1148 27.44 73.5048 27.44C74.2148 27.44 74.7148 27.73 75.0948 28.08L74.6348 28.68C74.3148 28.39 73.9748 28.2 73.5548 28.2C72.5548 28.2 71.8348 29.04 71.8348 30.3C71.8348 31.54 72.5248 32.38 73.5248 32.38C74.0148 32.38 74.4648 32.14 74.8048 31.84L75.1948 32.45C74.7148 32.88 74.0848 33.14 73.4348 33.14ZM76.9024 33V25.05H77.8124V27.22L77.7824 28.34C78.2824 27.85 78.8324 27.44 79.5824 27.44C80.7224 27.44 81.2424 28.18 81.2424 29.56V33H80.3224V29.68C80.3224 28.66 80.0124 28.23 79.2924 28.23C78.7424 28.23 78.3524 28.52 77.8124 29.06V33H76.9024ZM86.293 33V25.67H87.403L88.813 29.6C88.993 30.1 89.163 30.61 89.343 31.13H89.383C89.563 30.61 89.723 30.1 89.893 29.6L91.283 25.67H92.403V33H91.543V28.95C91.543 28.31 91.613 27.43 91.663 26.78H91.613L91.033 28.45L89.643 32.27H89.023L87.633 28.45L87.053 26.78H87.013C87.063 27.43 87.133 28.31 87.133 28.95V33H86.293ZM96.0782 33.14C95.1682 33.14 94.4882 32.57 94.4882 31.59C94.4882 30.41 95.5082 29.82 97.8182 29.56C97.8182 28.86 97.5982 28.19 96.7082 28.19C96.0682 28.19 95.4982 28.49 95.0782 28.78L94.7182 28.14C95.2182 27.82 95.9782 27.44 96.8482 27.44C98.1782 27.44 98.7382 28.32 98.7382 29.67V33H97.9882L97.9082 32.36H97.8682C97.3582 32.79 96.7482 33.14 96.0782 33.14ZM96.3282 32.4C96.8582 32.4 97.2982 32.15 97.8182 31.68V30.17C95.9882 30.38 95.3782 30.83 95.3782 31.53C95.3782 32.15 95.7982 32.4 96.3282 32.4ZM102.487 33.14C101.327 33.14 100.947 32.41 100.947 31.33V28.31H100.137V27.63L100.987 27.57L101.087 26.04H101.857V27.57H103.327V28.31H101.857V31.35C101.857 32.01 102.067 32.4 102.697 32.4C102.887 32.4 103.137 32.32 103.307 32.25L103.487 32.93C103.187 33.04 102.827 33.14 102.487 33.14ZM107.011 33.14C105.571 33.14 104.471 32.09 104.471 30.3C104.471 28.48 105.691 27.44 107.081 27.44C107.791 27.44 108.291 27.73 108.671 28.08L108.211 28.68C107.891 28.39 107.551 28.2 107.131 28.2C106.131 28.2 105.411 29.04 105.411 30.3C105.411 31.54 106.101 32.38 107.101 32.38C107.591 32.38 108.041 32.14 108.381 31.84L108.771 32.45C108.291 32.88 107.661 33.14 107.011 33.14ZM110.479 33V25.05H111.389V27.22L111.359 28.34C111.859 27.85 112.409 27.44 113.159 27.44C114.299 27.44 114.819 28.18 114.819 29.56V33H113.899V29.68C113.899 28.66 113.589 28.23 112.869 28.23C112.319 28.23 111.929 28.52 111.389 29.06V33H110.479ZM117.053 33V27.57H117.963V33H117.053ZM117.513 26.45C117.153 26.45 116.903 26.22 116.903 25.84C116.903 25.49 117.153 25.26 117.513 25.26C117.863 25.26 118.123 25.49 118.123 25.84C118.123 26.22 117.863 26.45 117.513 26.45ZM120.307 33V27.57H121.047L121.137 28.36H121.167C121.677 27.85 122.237 27.44 122.987 27.44C124.127 27.44 124.647 28.18 124.647 29.56V33H123.727V29.68C123.727 28.66 123.417 28.23 122.697 28.23C122.147 28.23 121.757 28.52 121.217 29.06V33H120.307ZM128.74 35.5C127.41 35.5 126.49 34.98 126.49 34.05C126.49 33.59 126.79 33.14 127.29 32.82V32.78C127.01 32.6 126.8 32.31 126.8 31.88C126.8 31.43 127.12 31.08 127.41 30.88V30.84C127.05 30.55 126.69 30.03 126.69 29.38C126.69 28.18 127.63 27.44 128.73 27.44C129.04 27.44 129.31 27.5 129.5 27.57H131.39V28.28H130.28C130.54 28.53 130.72 28.93 130.72 29.4C130.72 30.56 129.84 31.28 128.73 31.28C128.47 31.28 128.17 31.22 127.92 31.1C127.73 31.26 127.57 31.45 127.57 31.74C127.57 32.09 127.8 32.34 128.53 32.34H129.59C130.85 32.34 131.48 32.73 131.48 33.63C131.48 34.64 130.41 35.5 128.74 35.5ZM128.73 30.67C129.36 30.67 129.89 30.16 129.89 29.38C129.89 28.58 129.37 28.1 128.73 28.1C128.09 28.1 127.57 28.57 127.57 29.38C127.57 30.16 128.1 30.67 128.73 30.67ZM128.86 34.88C129.91 34.88 130.59 34.33 130.59 33.77C130.59 33.26 130.2 33.09 129.49 33.09H128.55C128.34 33.09 128.09 33.07 127.84 33C127.45 33.28 127.29 33.61 127.29 33.92C127.29 34.51 127.88 34.88 128.86 34.88Z" fill="#786CC2"/>
</svg>
