<svg width="25" height="24" viewBox="0 0 25 24" fill="none" xmlns="http://www.w3.org/2000/svg">
<g clip-path="url(#clip0_211_1198)">
<path d="M15.8404 14H15.0595L14.7827 13.73C15.9689 12.33 16.5818 10.42 16.2457 8.39002C15.7811 5.61002 13.4878 3.39002 10.7201 3.05002C6.53888 2.53002 3.01992 6.09001 3.53393 10.32C3.87001 13.12 6.06442 15.44 8.81237 15.91C10.819 16.25 12.707 15.63 14.0908 14.43L14.3577 14.71V15.5L18.5587 19.75C18.964 20.16 19.6263 20.16 20.0315 19.75C20.4368 19.34 20.4368 18.67 20.0315 18.26L15.8404 14ZM9.90958 14C7.44828 14 5.46145 11.99 5.46145 9.50001C5.46145 7.01001 7.44828 5.00002 9.90958 5.00002C12.3709 5.00002 14.3577 7.01001 14.3577 9.50001C14.3577 11.99 12.3709 14 9.90958 14Z" fill="#BBBAB9"/>
</g>
<defs>
<clipPath id="clip0_211_1198">
<rect width="23.7233" height="24" fill="white" transform="translate(0.519043)"/>
</clipPath>
</defs>
</svg>
